<svg xmlns="http://www.w3.org/2000/svg" viewBox="0 0 32 32" width="32" height="32">
  <defs>
    <linearGradient id="bgFav" x1="0%" y1="0%" x2="100%" y2="100%">
      <stop offset="0%" style="stop-color:#0a0908"/>
      <stop offset="100%" style="stop-color:#1a1510"/>
    </linearGradient>
    <linearGradient id="goldFav" x1="0%" y1="0%" x2="100%" y2="100%">
      <stop offset="0%" style="stop-color:#C9A962"/>
      <stop offset="100%" style="stop-color:#8B5A2B"/>
    </linearGradient>
  </defs>
  <rect width="32" height="32" rx="6" fill="url(#bgFav)"/>
  <g transform="translate(16, 14) scale(0.16)">
    <path d="M0,-70 C35,-70 55,-45 55,-15 C55,20 40,45 25,75 C20,85 10,85 5,75 C0,65 0,55 0,45 C0,55 0,65 -5,75 C-10,85 -20,85 -25,75 C-40,45 -55,20 -55,-15 C-55,-45 -35,-70 0,-70 Z" fill="white" stroke="url(#goldFav)" stroke-width="6"/>
  </g>
  <text x="16" y="28" font-family="Arial" font-size="6" font-weight="bold" fill="url(#goldFav)" text-anchor="middle">BD</text>
</svg>
