<svg xmlns="http://www.w3.org/2000/svg" viewBox="0 0 32 32" width="32" height="32">
  <defs>
    <linearGradient id="bg1" x1="0%" y1="0%" x2="100%" y2="100%">
      <stop offset="0%" style="stop-color:#E8C252"/>
      <stop offset="35%" style="stop-color:#D4A853"/>
      <stop offset="50%" style="stop-color:#F5D978"/>
      <stop offset="65%" style="stop-color:#C9A042"/>
      <stop offset="100%" style="stop-color:#A8842F"/>
    </linearGradient>
    <linearGradient id="shine" x1="0%" y1="0%" x2="100%" y2="100%">
      <stop offset="0%" style="stop-color:#FFFFFF;stop-opacity:0"/>
      <stop offset="40%" style="stop-color:#FFFFFF;stop-opacity:0.35"/>
      <stop offset="50%" style="stop-color:#FFFFFF;stop-opacity:0.5"/>
      <stop offset="60%" style="stop-color:#FFFFFF;stop-opacity:0.35"/>
      <stop offset="100%" style="stop-color:#FFFFFF;stop-opacity:0"/>
    </linearGradient>
  </defs>
  <!-- 골드 라운드 배경 (그라데이션에 밝은 중심 포인트) -->
  <rect width="32" height="32" rx="7" fill="url(#bg1)"/>
  <!-- 대각선 광택 줄기 -->
  <rect width="32" height="32" rx="7" fill="url(#shine)"/>
  <!-- 치아 심볼 -->
  <path d="M16,5 C21,5 25,8.5 25,13 C25,18 22,23 20,27 C19,29 17.5,29 17,27 C16.5,25 16.2,23 16,22 C15.8,23 15.5,25 15,27 C14.5,29 13,29 12,27 C10,23 7,18 7,13 C7,8.5 11,5 16,5 Z" fill="white"/>
  <!-- 치아 위 광택 하이라이트 -->
  <ellipse cx="13" cy="10.5" rx="3" ry="4" fill="white" opacity="0.35"/>
  <!-- 꼭짓점 반짝임 스파클 ✦ -->
  <g fill="white" opacity="0.9">
    <polygon points="26,4 26.8,5.8 28.8,6 27,7.3 27.4,9.2 26,8 24.6,9.2 25,7.3 23.2,6 25.2,5.8"/>
  </g>
  <g fill="white" opacity="0.55">
    <polygon points="6.5,3.5 7,4.5 8,4.8 7.2,5.5 7.3,6.5 6.5,5.9 5.7,6.5 5.8,5.5 5,4.8 6,4.5"/>
  </g>
</svg>
