<svg xmlns="http://www.w3.org/2000/svg" viewBox="0 0 192 192" width="192" height="192">
  <defs>
    <linearGradient id="bg192" x1="0%" y1="0%" x2="100%" y2="100%">
      <stop offset="0%" style="stop-color:#0a0908"/>
      <stop offset="100%" style="stop-color:#1a1510"/>
    </linearGradient>
    <linearGradient id="gold192" x1="0%" y1="0%" x2="100%" y2="100%">
      <stop offset="0%" style="stop-color:#C9A962"/>
      <stop offset="50%" style="stop-color:#D4B896"/>
      <stop offset="100%" style="stop-color:#8B5A2B"/>
    </linearGradient>
    <linearGradient id="tooth192" x1="0%" y1="0%" x2="0%" y2="100%">
      <stop offset="0%" style="stop-color:#ffffff"/>
      <stop offset="100%" style="stop-color:#f0f0f0"/>
    </linearGradient>
    <filter id="glow192">
      <feDropShadow dx="0" dy="2" stdDeviation="4" flood-color="#C9A962" flood-opacity="0.4"/>
    </filter>
  </defs>
  
  <!-- Background with rounded corners for maskable -->
  <rect width="192" height="192" rx="38" fill="url(#bg192)"/>
  
  <!-- Decorative ring -->
  <circle cx="96" cy="96" r="75" fill="none" stroke="url(#gold192)" stroke-width="1" opacity="0.2"/>
  
  <!-- Tooth -->
  <g transform="translate(96, 85) scale(0.9)" filter="url(#glow192)">
    <path d="M0,-70 C35,-70 55,-45 55,-15 C55,20 40,45 25,75 C20,85 10,85 5,75 C0,65 0,55 0,45 C0,55 0,65 -5,75 C-10,85 -20,85 -25,75 C-40,45 -55,20 -55,-15 C-55,-45 -35,-70 0,-70 Z" 
          fill="url(#tooth192)" 
          stroke="url(#gold192)" 
          stroke-width="3"/>
    <ellipse cx="0" cy="-40" rx="20" ry="12" fill="white" opacity="0.5"/>
  </g>
  
  <!-- Brand text -->
  <text x="96" y="175" font-family="Arial, sans-serif" font-size="24" font-weight="bold" fill="url(#gold192)" text-anchor="middle">BD</text>
</svg>
