<svg xmlns="http://www.w3.org/2000/svg" viewBox="0 0 384 384" width="384" height="384">
  <defs>
    <linearGradient id="bg384" x1="0%" y1="0%" x2="100%" y2="100%">
      <stop offset="0%" style="stop-color:#0a0908"/>
      <stop offset="50%" style="stop-color:#12100d"/>
      <stop offset="100%" style="stop-color:#1a1510"/>
    </linearGradient>
    <linearGradient id="gold384" x1="0%" y1="0%" x2="100%" y2="100%">
      <stop offset="0%" style="stop-color:#C9A962"/>
      <stop offset="50%" style="stop-color:#D4B896"/>
      <stop offset="100%" style="stop-color:#8B5A2B"/>
    </linearGradient>
    <linearGradient id="tooth384" x1="0%" y1="0%" x2="0%" y2="100%">
      <stop offset="0%" style="stop-color:#ffffff"/>
      <stop offset="50%" style="stop-color:#f8f8f8"/>
      <stop offset="100%" style="stop-color:#ececec"/>
    </linearGradient>
    <filter id="glow384" x="-15%" y="-15%" width="130%" height="130%">
      <feDropShadow dx="0" dy="4" stdDeviation="8" flood-color="#C9A962" flood-opacity="0.35"/>
    </filter>
  </defs>
  
  <rect width="384" height="384" rx="77" fill="url(#bg384)"/>
  
  <!-- Decorative rings -->
  <circle cx="192" cy="192" r="160" fill="none" stroke="url(#gold384)" stroke-width="1.5" opacity="0.15"/>
  <circle cx="192" cy="192" r="140" fill="none" stroke="url(#gold384)" stroke-width="1" opacity="0.1"/>
  
  <!-- Tooth -->
  <g transform="translate(192, 165) scale(1.65)" filter="url(#glow384)">
    <path d="M0,-70 C35,-70 55,-45 55,-15 C55,20 40,45 25,75 C20,85 10,85 5,75 C0,65 0,55 0,45 C0,55 0,65 -5,75 C-10,85 -20,85 -25,75 C-40,45 -55,20 -55,-15 C-55,-45 -35,-70 0,-70 Z" 
          fill="url(#tooth384)" 
          stroke="url(#gold384)" 
          stroke-width="3"/>
    <ellipse cx="0" cy="-45" rx="25" ry="14" fill="white" opacity="0.55"/>
    <ellipse cx="-12" cy="-28" rx="6" ry="10" fill="white" opacity="0.25" transform="rotate(-15)"/>
  </g>
  
  <!-- Brand text -->
  <text x="192" y="348" font-family="Arial, sans-serif" font-size="44" font-weight="bold" fill="url(#gold384)" text-anchor="middle" letter-spacing="3">BD</text>
  <text x="192" y="370" font-family="Arial, sans-serif" font-size="12" fill="#888" text-anchor="middle" opacity="0.6">DENTAL</text>
</svg>
