<svg xmlns="http://www.w3.org/2000/svg" viewBox="0 0 128 128" width="128" height="128">
  <defs>
    <linearGradient id="bg128" x1="0%" y1="0%" x2="100%" y2="100%">
      <stop offset="0%" style="stop-color:#0a0908"/>
      <stop offset="100%" style="stop-color:#1a1510"/>
    </linearGradient>
    <linearGradient id="gold128" x1="0%" y1="0%" x2="100%" y2="100%">
      <stop offset="0%" style="stop-color:#C9A962"/>
      <stop offset="50%" style="stop-color:#D4B896"/>
      <stop offset="100%" style="stop-color:#8B5A2B"/>
    </linearGradient>
    <filter id="glow128">
      <feDropShadow dx="0" dy="1" stdDeviation="2" flood-color="#C9A962" flood-opacity="0.3"/>
    </filter>
  </defs>
  <rect width="128" height="128" rx="26" fill="url(#bg128)"/>
  <circle cx="64" cy="64" r="50" fill="none" stroke="url(#gold128)" stroke-width="1" opacity="0.15"/>
  <g transform="translate(64, 56) scale(0.6)" filter="url(#glow128)">
    <path d="M0,-70 C35,-70 55,-45 55,-15 C55,20 40,45 25,75 C20,85 10,85 5,75 C0,65 0,55 0,45 C0,55 0,65 -5,75 C-10,85 -20,85 -25,75 C-40,45 -55,20 -55,-15 C-55,-45 -35,-70 0,-70 Z" fill="white" stroke="url(#gold128)" stroke-width="3"/>
    <ellipse cx="0" cy="-40" rx="18" ry="10" fill="white" opacity="0.5"/>
  </g>
  <text x="64" y="115" font-family="Arial" font-size="18" font-weight="bold" fill="url(#gold128)" text-anchor="middle">BD</text>
</svg>
