<svg xmlns="http://www.w3.org/2000/svg" viewBox="0 0 96 96" width="96" height="96">
  <defs>
    <linearGradient id="bg96" x1="0%" y1="0%" x2="100%" y2="100%">
      <stop offset="0%" style="stop-color:#0a0908"/>
      <stop offset="100%" style="stop-color:#1a1510"/>
    </linearGradient>
    <linearGradient id="gold96" x1="0%" y1="0%" x2="100%" y2="100%">
      <stop offset="0%" style="stop-color:#C9A962"/>
      <stop offset="100%" style="stop-color:#8B5A2B"/>
    </linearGradient>
  </defs>
  <rect width="96" height="96" rx="19" fill="url(#bg96)"/>
  <g transform="translate(48, 42) scale(0.45)">
    <path d="M0,-70 C35,-70 55,-45 55,-15 C55,20 40,45 25,75 C20,85 10,85 5,75 C0,65 0,55 0,45 C0,55 0,65 -5,75 C-10,85 -20,85 -25,75 C-40,45 -55,20 -55,-15 C-55,-45 -35,-70 0,-70 Z" fill="white" stroke="url(#gold96)" stroke-width="4"/>
    <ellipse cx="0" cy="-40" rx="18" ry="10" fill="white" opacity="0.5"/>
  </g>
  <text x="48" y="82" font-family="Arial" font-size="14" font-weight="bold" fill="url(#gold96)" text-anchor="middle">BD</text>
</svg>
