<svg xmlns="http://www.w3.org/2000/svg" viewBox="0 0 152 152" width="152" height="152">
  <defs>
    <linearGradient id="bg152" x1="0%" y1="0%" x2="100%" y2="100%">
      <stop offset="0%" style="stop-color:#0a0908"/>
      <stop offset="100%" style="stop-color:#1a1510"/>
    </linearGradient>
    <linearGradient id="gold152" x1="0%" y1="0%" x2="100%" y2="100%">
      <stop offset="0%" style="stop-color:#C9A962"/>
      <stop offset="50%" style="stop-color:#D4B896"/>
      <stop offset="100%" style="stop-color:#8B5A2B"/>
    </linearGradient>
    <filter id="glow152">
      <feDropShadow dx="0" dy="2" stdDeviation="3" flood-color="#C9A962" flood-opacity="0.35"/>
    </filter>
  </defs>
  <rect width="152" height="152" rx="30" fill="url(#bg152)"/>
  <circle cx="76" cy="76" r="60" fill="none" stroke="url(#gold152)" stroke-width="1" opacity="0.15"/>
  <g transform="translate(76, 66) scale(0.72)" filter="url(#glow152)">
    <path d="M0,-70 C35,-70 55,-45 55,-15 C55,20 40,45 25,75 C20,85 10,85 5,75 C0,65 0,55 0,45 C0,55 0,65 -5,75 C-10,85 -20,85 -25,75 C-40,45 -55,20 -55,-15 C-55,-45 -35,-70 0,-70 Z" fill="white" stroke="url(#gold152)" stroke-width="3"/>
    <ellipse cx="0" cy="-40" rx="18" ry="10" fill="white" opacity="0.5"/>
  </g>
  <text x="76" y="138" font-family="Arial" font-size="22" font-weight="bold" fill="url(#gold152)" text-anchor="middle">BD</text>
</svg>
