<svg xmlns="http://www.w3.org/2000/svg" viewBox="0 0 96 96" width="96" height="96">
  <defs>
    <linearGradient id="bgCall" x1="0%" y1="0%" x2="100%" y2="100%">
      <stop offset="0%" style="stop-color:#0a0908"/>
      <stop offset="100%" style="stop-color:#1a1510"/>
    </linearGradient>
    <linearGradient id="greenCall" x1="0%" y1="0%" x2="100%" y2="100%">
      <stop offset="0%" style="stop-color:#10b981"/>
      <stop offset="100%" style="stop-color:#059669"/>
    </linearGradient>
  </defs>
  <rect width="96" height="96" rx="19" fill="url(#bgCall)"/>
  <!-- Phone icon -->
  <g transform="translate(48, 48)">
    <path d="M-22,-22 C-22,-22 -18,-14 -14,-10 C-10,-6 -6,-6 -2,-10 L2,-14 C6,-18 14,-10 18,-6 C22,-2 22,2 18,6 L14,10 C10,14 10,18 6,22 C2,26 -6,26 -14,18 C-22,10 -26,2 -26,-6 C-26,-14 -22,-22 -22,-22 Z" 
          fill="url(#greenCall)" 
          transform="rotate(-5)"/>
  </g>
</svg>
