<svg xmlns="http://www.w3.org/2000/svg" viewBox="0 0 72 72" width="72" height="72">
  <defs>
    <linearGradient id="bg72" x1="0%" y1="0%" x2="100%" y2="100%">
      <stop offset="0%" style="stop-color:#0a0908"/>
      <stop offset="100%" style="stop-color:#1a1510"/>
    </linearGradient>
    <linearGradient id="gold72" x1="0%" y1="0%" x2="100%" y2="100%">
      <stop offset="0%" style="stop-color:#C9A962"/>
      <stop offset="100%" style="stop-color:#8B5A2B"/>
    </linearGradient>
  </defs>
  <rect width="72" height="72" rx="14" fill="url(#bg72)"/>
  <g transform="translate(36, 32) scale(0.35)">
    <path d="M0,-70 C35,-70 55,-45 55,-15 C55,20 40,45 25,75 C20,85 10,85 5,75 C0,65 0,55 0,45 C0,55 0,65 -5,75 C-10,85 -20,85 -25,75 C-40,45 -55,20 -55,-15 C-55,-45 -35,-70 0,-70 Z" fill="white" stroke="url(#gold72)" stroke-width="4"/>
  </g>
  <text x="36" y="62" font-family="Arial" font-size="10" font-weight="bold" fill="url(#gold72)" text-anchor="middle">BD</text>
</svg>
